<?xml version="1.0" encoding="utf-8"?>
<svg xmlns="http://www.w3.org/2000/svg" version="1.1" viewBox="0 0 1400 340">
	<title>The titlepage for the Standard Ebooks edition of Romeo and Juliet, by William Shakespeare</title>
	<g aria-label="ROMEO AND JULIET">
		<path d="M193.17,52.81l27.60,0.00c14.32,0.00,25.17,7.77,25.17,22.92c0.00,11.60-6.36,19.37-15.81,22.36l26.57,31.91l-22.36,0.00l-23.58-30.50l0.00,30.50l-17.59,0.00l0.00-77.19z  M210.76,87.05l2.06,0.00c6.64,0.00,14.60-0.47,14.60-10.11s-7.95-10.11-14.60-10.11l-2.06,0.00l0.00,20.21z"/>
		<path d="M261.70,91.36c0.00-22.55,17.68-39.95,38.92-39.95c21.43,0.00,38.83,17.40,38.83,39.95s-16.65,40.05-38.83,40.05c-22.83,0.00-38.92-17.50-38.92-40.05z  M280.69,91.36c0.00,11.51,5.52,23.02,19.93,23.02c14.04,0.00,19.84-11.51,19.84-23.02s-6.18-23.02-19.84-23.02c-13.57,0.00-19.93,11.51-19.93,23.02z"/>
		<path d="M416.03,130.00l-3.65-45.75l-0.47,0.00l-15.81,45.29l-10.48,0.00l-15.81-45.29l-0.47,0.00l-3.65,45.75l-17.59,0.00l6.92-77.19l18.71,0.00l17.12,44.54l17.12-44.54l18.71,0.00l6.92,77.19l-17.59,0.00z"/>
		<path d="M489.90,52.81l0.00,15.44l-26.57,0.00l0.00,15.35l25.45,0.00l0.00,15.44l-25.45,0.00l0.00,15.53l26.57,0.00l0.00,15.44l-44.16,0.00l0.00-77.19l44.16,0.00z"/>
		<path d="M501.54,91.36c0.00-22.55,17.68-39.95,38.92-39.95c21.43,0.00,38.83,17.40,38.83,39.95s-16.65,40.05-38.83,40.05c-22.83,0.00-38.92-17.50-38.92-40.05z  M520.54,91.36c0.00,11.51,5.52,23.02,19.93,23.02c14.04,0.00,19.84-11.51,19.84-23.02s-6.18-23.02-19.84-23.02c-13.57,0.00-19.93,11.51-19.93,23.02z"/>
		<path d="M661.81,52.81l31.16,77.19l-18.90,0.00l-5.71-15.44l-29.38,0.00l-5.71,15.44l-18.90,0.00l31.16-77.19l16.28,0.00z  M662.37,99.12l-8.61-22.46l-0.19,0.00l-8.61,22.46l17.40,0.00z"/>
		<path d="M718.55,82.09l0.00,47.91l-17.59,0.00l0.00-77.19l17.59,0.00l30.69,47.91l0.19,0.00l0.00-47.91l17.59,0.00l0.00,77.19l-17.59,0.00l-30.69-47.91l-0.19,0.00z"/>
		<path d="M783.25,52.81l22.36,0.00c21.15,0.00,38.92,16.09,38.92,38.55c0.00,22.55-17.68,38.64-38.92,38.64l-22.36,0.00l0.00-77.19z  M800.84,114.28l2.71,0.00c13.01,0.00,21.89-9.92,21.99-22.83c0.00-12.91-8.89-22.92-21.99-22.92l-2.71,0.00l0.00,45.75z"/>
		<path d="M921.44,52.81l0.00,55.39c0.00,15.16-8.61,23.20-24.05,23.20c-11.04,0.00-18.06-7.39-18.06-7.39l5.61-14.69s5.52,5.24,10.01,5.24c5.05,0.00,8.89-3.09,8.89-10.85l0.00-50.90l17.59,0.00z"/>
		<path d="M996.05,52.81l0.00,49.78c0.00,19.09-10.48,28.82-30.13,28.82s-30.13-9.73-30.13-28.82l0.00-49.78l17.59,0.00l0.00,44.63c0.00,12.91,3.93,16.65,12.54,16.65s12.54-3.74,12.54-16.65l0.00-44.63l17.59,0.00z"/>
		<path d="M1028.93,52.81l0.00,61.75l26.57,0.00l0.00,15.44l-44.16,0.00l0.00-77.19l17.59,0.00z"/>
		<path d="M1086.80,52.81l0.00,77.19l-17.59,0.00l0.00-77.19l17.59,0.00z"/>
		<path d="M1147.19,52.81l0.00,15.44l-26.57,0.00l0.00,15.35l25.45,0.00l0.00,15.44l-25.45,0.00l0.00,15.53l26.57,0.00l0.00,15.44l-44.16,0.00l0.00-77.19l44.16,0.00z"/>
		<path d="M1157.43,68.25l0.00-15.44l54.27,0.00l0.00,15.44l-18.34,0.00l0.00,61.75l-17.59,0.00l0.00-61.75l-18.34,0.00z"/>
	</g>
	<g aria-label="WILLIAM SHAKESPEARE">
		<path d="M267.18,290.00l-9.26-32.49l-9.26,32.49l-14.67,0.00l-16.49-57.89l14.67,0.00l9.89,39.72l0.35,0.00l10.53-39.72l9.96,0.00l10.53,39.72l0.35,0.00l9.89-39.72l14.60,0.00l-16.49,57.89l-14.60,0.00z"/>
		<path d="M319.61,232.11l0.00,57.89l-13.19,0.00l0.00-57.89l13.19,0.00z"/>
		<path d="M346.23,232.11l0.00,46.32l19.93,0.00l0.00,11.58l-33.12,0.00l0.00-57.89l13.19,0.00z"/>
		<path d="M390.88,232.11l0.00,46.32l19.93,0.00l0.00,11.58l-33.12,0.00l0.00-57.89l13.19,0.00z"/>
		<path d="M435.53,232.11l0.00,57.89l-13.19,0.00l0.00-57.89l13.19,0.00z"/>
		<path d="M478.35,232.11l23.37,57.89l-14.18,0.00l-4.28-11.58l-22.04,0.00l-4.28,11.58l-14.18,0.00l23.37-57.89l12.21,0.00z  M478.77,266.84l-6.46-16.84l-0.14,0.00l-6.46,16.84l13.05,0.00z"/>
		<path d="M556.82,290.00l-2.74-34.32l-0.35,0.00l-11.86,33.96l-7.86,0.00l-11.86-33.96l-0.35,0.00l-2.74,34.32l-13.19,0.00l5.19-57.89l14.04,0.00l12.84,33.40l12.84-33.40l14.04,0.00l5.19,57.89l-13.19,0.00z"/>
		<path d="M624.44,231.05c10.53,0.00,17.96,5.47,17.96,5.47l-5.33,10.53s-5.75-4.00-11.72-4.00c-4.49,0.00-6.88,2.04-6.88,5.19c0.00,3.23,5.47,5.54,12.07,8.35c6.46,2.74,13.54,8.21,13.54,15.79c0.00,13.82-10.53,18.67-21.82,18.67c-13.54,0.00-21.75-7.65-21.75-7.65l6.60-11.09s7.72,6.53,14.18,6.53c2.88,0.00,8.35-0.28,8.35-5.68c0.00-4.21-6.18-6.11-13.05-9.54c-6.95-3.44-11.02-8.84-11.02-14.88c0.00-10.81,9.54-17.68,18.88-17.68z"/>
		<path d="M668.46,266.77l0.00,23.23l-13.19,0.00l0.00-57.89l13.19,0.00l0.00,23.09l18.67,0.00l0.00-23.09l13.19,0.00l0.00,57.89l-13.19,0.00l0.00-23.23l-18.67,0.00z"/>
		<path d="M743.14,232.11l23.37,57.89l-14.18,0.00l-4.28-11.58l-22.04,0.00l-4.28,11.58l-14.18,0.00l23.37-57.89l12.21,0.00z  M743.56,266.84l-6.46-16.84l-0.14,0.00l-6.46,16.84l13.05,0.00z"/>
		<path d="M826.46,290.00l-18.18,0.00l-21.33-24.56l0.00,24.56l-13.19,0.00l0.00-57.89l13.19,0.00l0.00,23.65l19.86-23.65l16.00,0.00l-23.30,27.44z"/>
		<path d="M867.11,232.11l0.00,11.58l-19.93,0.00l0.00,11.51l19.09,0.00l0.00,11.58l-19.09,0.00l0.00,11.65l19.93,0.00l0.00,11.58l-33.12,0.00l0.00-57.89l33.12,0.00z"/>
		<path d="M901.02,231.05c10.53,0.00,17.96,5.47,17.96,5.47l-5.33,10.53s-5.75-4.00-11.72-4.00c-4.49,0.00-6.88,2.04-6.88,5.19c0.00,3.23,5.47,5.54,12.07,8.35c6.46,2.74,13.54,8.21,13.54,15.79c0.00,13.82-10.53,18.67-21.82,18.67c-13.54,0.00-21.75-7.65-21.75-7.65l6.60-11.09s7.72,6.53,14.18,6.53c2.88,0.00,8.35-0.28,8.35-5.68c0.00-4.21-6.18-6.11-13.05-9.54c-6.95-3.44-11.02-8.84-11.02-14.88c0.00-10.81,9.54-17.68,18.88-17.68z"/>
		<path d="M931.84,232.11l21.12,0.00c11.30,0.00,19.79,5.82,19.79,17.82c0.00,11.93-8.49,18.60-19.79,18.60l-7.93,0.00l0.00,21.47l-13.19,0.00l0.00-57.89z  M945.04,258.00l3.72,0.00c5.19,0.00,10.11-1.75,10.11-7.65c0.00-5.96-4.91-7.72-10.11-7.72l-3.72,0.00l0.00,15.37z"/>
		<path d="M1016.70,232.11l0.00,11.58l-19.93,0.00l0.00,11.51l19.09,0.00l0.00,11.58l-19.09,0.00l0.00,11.65l19.93,0.00l0.00,11.58l-33.12,0.00l0.00-57.89l33.12,0.00z"/>
		<path d="M1059.11,232.11l23.37,57.89l-14.18,0.00l-4.28-11.58l-22.04,0.00l-4.28,11.58l-14.18,0.00l23.37-57.89l12.21,0.00z  M1059.53,266.84l-6.46-16.84l-0.14,0.00l-6.46,16.84l13.05,0.00z"/>
		<path d="M1089.72,232.11l20.70,0.00c10.74,0.00,18.88,5.82,18.88,17.19c0.00,8.70-4.77,14.53-11.86,16.77l19.93,23.93l-16.77,0.00l-17.68-22.88l0.00,22.88l-13.19,0.00l0.00-57.89z  M1102.91,257.79l1.54,0.00c4.98,0.00,10.95-0.35,10.95-7.58s-5.96-7.58-10.95-7.58l-1.54,0.00l0.00,15.16z"/>
		<path d="M1178.09,232.11l0.00,11.58l-19.93,0.00l0.00,11.51l19.09,0.00l0.00,11.58l-19.09,0.00l0.00,11.65l19.93,0.00l0.00,11.58l-33.12,0.00l0.00-57.89l33.12,0.00z"/>
	</g>
</svg>
